<svg width="855" height="323" viewBox="0 0 855 323" fill="none" xmlns="http://www.w3.org/2000/svg">
<g clip-path="url(#clip0_103_11394)">
<path opacity="0.06" d="M0.5 261.289H150.146V316.093H213.171V261.289H251.838V208.464H213.171V4.31836H130.66L0.5 209.377V261.289ZM151.364 208.464H66.8739V206.028L148.928 76.1727H151.364V208.464Z" fill="#E6DAFF"/>
<path opacity="0.06" d="M426.574 322.945C504.974 322.945 552.319 263.269 552.471 160.511C552.623 58.5144 504.67 0.0566406 426.574 0.0566406C348.326 0.0566406 300.829 58.3621 300.677 160.511C300.372 262.965 348.021 322.793 426.574 322.945ZM426.574 268.293C390.799 268.293 367.659 232.366 367.812 160.511C367.964 89.7223 390.951 54.0996 426.574 54.0996C462.044 54.0996 485.184 89.7223 485.184 160.511C485.336 232.366 462.197 268.293 426.574 268.293Z" fill="#E6DAFF"/>
<path opacity="0.06" d="M603.328 261.289H752.974V316.093H815.999V261.289H854.666V208.464H815.999V4.31836H733.488L603.328 209.377V261.289ZM754.192 208.464H669.702V206.028L751.756 76.1727H754.192V208.464Z" fill="#E6DAFF"/>
</g>
<defs>
<clipPath id="clip0_103_11394">
<rect width="854.167" height="322.888" fill="white" transform="translate(0.5 0.0566406)"/>
</clipPath>
</defs>
</svg>
