<svg width="135" height="32" viewBox="0 0 135 32" fill="none" xmlns="http://www.w3.org/2000/svg">
<rect width="32" height="32" rx="6" fill="#E6DAFF"/>
<path fill-rule="evenodd" clip-rule="evenodd" d="M16.0004 27C14.6667 27.0001 13.371 26.5645 12.318 25.7619C11.265 24.9593 10.5146 23.8355 10.1855 22.5681C9.85644 21.3007 9.96734 19.9619 10.5007 18.7632C11.0341 17.5645 11.9596 16.5742 13.1309 15.9488L13.1309 6.7907C13.1309 5.80223 13.949 5 14.957 5L17.5656 5C17.7732 5 17.9723 5.08085 18.119 5.22478C18.2658 5.3687 18.3482 5.5639 18.3482 5.76744L18.3482 8.06977L20.1743 8.06977C20.3819 8.06977 20.5809 8.15062 20.7277 8.29454C20.8745 8.43847 20.9569 8.63367 20.9569 8.83721L20.9569 11.3953C20.9569 11.5989 20.8745 11.7941 20.7277 11.938C20.5809 12.0819 20.3819 12.1628 20.1743 12.1628L18.3482 12.1628L18.3482 15.7002C19.6212 16.2312 20.6679 17.1772 21.3113 18.3781C21.9548 19.5789 22.1554 20.9609 21.8792 22.2901C21.603 23.6193 20.867 24.8142 19.7958 25.6724C18.7245 26.5307 17.3838 26.9997 16.0004 27ZM13.9135 21.1163C13.9135 21.659 14.1334 22.1796 14.5247 22.5634C14.9161 22.9472 15.4469 23.1628 16.0004 23.1628C16.5539 23.1628 17.0847 22.9472 17.4761 22.5634C17.8675 22.1796 18.0874 21.659 18.0874 21.1163C18.0874 20.5735 17.8675 20.053 17.4761 19.6692C17.0847 19.2854 16.5539 19.0698 16.0004 19.0698C15.4469 19.0698 14.9161 19.2854 14.5247 19.6692C14.1334 20.053 13.9135 20.5735 13.9135 21.1163Z" fill="white"/>
<path d="M45.9631 24.5H42.5881L48.733 7.04545H52.6364L58.7898 24.5H55.4148L50.7528 10.625H50.6165L45.9631 24.5ZM46.0739 17.6562H55.2784V20.196H46.0739V17.6562ZM63.9719 24.7301C62.9435 24.7301 62.0231 24.4659 61.2106 23.9375C60.3981 23.4091 59.756 22.642 59.2844 21.6364C58.8128 20.6307 58.577 19.4091 58.577 17.9716C58.577 16.517 58.8157 15.2898 59.293 14.2898C59.7759 13.2841 60.4265 12.5256 61.2447 12.0142C62.0628 11.4972 62.9748 11.2386 63.9805 11.2386C64.7475 11.2386 65.3782 11.3693 65.8725 11.6307C66.3668 11.8864 66.7589 12.196 67.0486 12.5597C67.3384 12.9176 67.5628 13.2557 67.7219 13.5739H67.8498V7.04545H70.9435V24.5H67.9094V22.4375H67.7219C67.5628 22.7557 67.3327 23.0937 67.0316 23.4517C66.7305 23.804 66.3327 24.1051 65.8384 24.3551C65.3441 24.6051 64.7219 24.7301 63.9719 24.7301ZM64.8327 22.1989C65.4861 22.1989 66.043 22.0227 66.5032 21.6705C66.9634 21.3125 67.3128 20.8153 67.5515 20.179C67.7901 19.5426 67.9094 18.8011 67.9094 17.9545C67.9094 17.108 67.7901 16.3722 67.5515 15.7472C67.3185 15.1222 66.9719 14.6364 66.5117 14.2898C66.0572 13.9432 65.4975 13.7699 64.8327 13.7699C64.1452 13.7699 63.5714 13.9489 63.1111 14.3068C62.6509 14.6648 62.3043 15.1591 62.0714 15.7898C61.8384 16.4205 61.7219 17.142 61.7219 17.9545C61.7219 18.7727 61.8384 19.5028 62.0714 20.1449C62.31 20.7812 62.6594 21.2841 63.1197 21.6534C63.5856 22.017 64.1566 22.1989 64.8327 22.1989ZM84.4843 11.4091L79.8224 24.5H76.4133L71.7514 11.4091H75.0412L78.0497 21.1335H78.186L81.2031 11.4091H84.4843ZM85.1793 24.5V11.4091H88.2645V24.5H85.1793ZM86.7304 9.55114C86.2418 9.55114 85.8213 9.3892 85.4691 9.06534C85.1168 8.73579 84.9407 8.34091 84.9407 7.88068C84.9407 7.41477 85.1168 7.01989 85.4691 6.69602C85.8213 6.36648 86.2418 6.2017 86.7304 6.2017C87.2247 6.2017 87.6452 6.36648 87.9918 6.69602C88.3441 7.01989 88.5202 7.41477 88.5202 7.88068C88.5202 8.34091 88.3441 8.73579 87.9918 9.06534C87.6452 9.3892 87.2247 9.55114 86.7304 9.55114ZM100.344 14.8693L97.5312 15.1761C97.4516 14.892 97.3124 14.625 97.1136 14.375C96.9204 14.125 96.659 13.9233 96.3295 13.7699C95.9999 13.6165 95.5965 13.5398 95.1193 13.5398C94.4772 13.5398 93.9374 13.679 93.4999 13.9574C93.0681 14.2358 92.8551 14.5966 92.8607 15.0398C92.8551 15.4205 92.9943 15.7301 93.2784 15.9688C93.5681 16.2074 94.0454 16.4034 94.7102 16.5568L96.9431 17.0341C98.1818 17.3011 99.1022 17.7244 99.7045 18.304C100.312 18.8835 100.619 19.642 100.625 20.5795C100.619 21.4034 100.378 22.1307 99.9005 22.7614C99.4289 23.3864 98.7727 23.875 97.9318 24.2273C97.0909 24.5795 96.1249 24.7557 95.034 24.7557C93.4318 24.7557 92.142 24.4205 91.1647 23.75C90.1874 23.0739 89.6051 22.1335 89.4176 20.929L92.4261 20.6392C92.5624 21.2301 92.8522 21.6761 93.2954 21.9773C93.7386 22.2784 94.3153 22.429 95.0255 22.429C95.7585 22.429 96.3465 22.2784 96.7897 21.9773C97.2386 21.6761 97.463 21.304 97.463 20.8608C97.463 20.4858 97.3181 20.1761 97.0284 19.9318C96.7443 19.6875 96.3011 19.5 95.6988 19.3693L93.4659 18.9006C92.2102 18.6392 91.2812 18.1989 90.6789 17.5795C90.0766 16.9545 89.7784 16.1648 89.784 15.2102C89.7784 14.4034 89.9971 13.7045 90.4403 13.1136C90.8891 12.517 91.5113 12.0568 92.3068 11.733C93.1079 11.4034 94.0312 11.2386 95.0766 11.2386C96.6107 11.2386 97.8181 11.5653 98.6988 12.2188C99.5852 12.8722 100.133 13.7557 100.344 14.8693ZM107.439 24.7557C106.161 24.7557 105.053 24.4744 104.115 23.9119C103.178 23.3494 102.451 22.5625 101.934 21.5511C101.422 20.5398 101.166 19.358 101.166 18.0057C101.166 16.6534 101.422 15.4687 101.934 14.4517C102.451 13.4347 103.178 12.6449 104.115 12.0824C105.053 11.5199 106.161 11.2386 107.439 11.2386C108.718 11.2386 109.826 11.5199 110.763 12.0824C111.701 12.6449 112.425 13.4347 112.936 14.4517C113.453 15.4687 113.712 16.6534 113.712 18.0057C113.712 19.358 113.453 20.5398 112.936 21.5511C112.425 22.5625 111.701 23.3494 110.763 23.9119C109.826 24.4744 108.718 24.7557 107.439 24.7557ZM107.456 22.2841C108.149 22.2841 108.729 22.0937 109.195 21.7131C109.661 21.3267 110.007 20.8097 110.235 20.1619C110.468 19.5142 110.584 18.7926 110.584 17.9972C110.584 17.196 110.468 16.4716 110.235 15.8239C110.007 15.1705 109.661 14.6506 109.195 14.2642C108.729 13.8778 108.149 13.6847 107.456 13.6847C106.746 13.6847 106.155 13.8778 105.684 14.2642C105.218 14.6506 104.868 15.1705 104.635 15.8239C104.408 16.4716 104.294 17.196 104.294 17.9972C104.294 18.7926 104.408 19.5142 104.635 20.1619C104.868 20.8097 105.218 21.3267 105.684 21.7131C106.155 22.0937 106.746 22.2841 107.456 22.2841ZM114.891 24.5V11.4091H117.882V13.5909H118.018C118.257 12.8352 118.666 12.2528 119.246 11.8438C119.831 11.429 120.498 11.2216 121.248 11.2216C121.419 11.2216 121.609 11.2301 121.82 11.2472C122.035 11.2585 122.214 11.2784 122.356 11.3068V14.1449C122.226 14.0994 122.018 14.0597 121.734 14.0256C121.456 13.9858 121.186 13.9659 120.925 13.9659C120.362 13.9659 119.856 14.0881 119.408 14.3324C118.964 14.571 118.615 14.9034 118.359 15.3295C118.104 15.7557 117.976 16.2472 117.976 16.804V24.5H114.891ZM126.499 24.7642C125.669 24.7642 124.922 24.6165 124.257 24.321C123.598 24.0199 123.076 23.5767 122.689 22.9915C122.308 22.4062 122.118 21.6847 122.118 20.8267C122.118 20.0881 122.255 19.4773 122.527 18.9943C122.8 18.5114 123.172 18.125 123.644 17.8352C124.115 17.5455 124.647 17.3267 125.237 17.179C125.834 17.0256 126.451 16.9148 127.087 16.8466C127.854 16.767 128.476 16.696 128.953 16.6335C129.431 16.5653 129.777 16.4631 129.993 16.3267C130.215 16.1847 130.326 15.9659 130.326 15.6705V15.6193C130.326 14.9773 130.135 14.4801 129.755 14.1278C129.374 13.7756 128.826 13.5994 128.11 13.5994C127.354 13.5994 126.755 13.7642 126.311 14.0938C125.874 14.4233 125.578 14.8125 125.425 15.2614L122.544 14.8523C122.772 14.0568 123.147 13.392 123.669 12.858C124.192 12.3182 124.831 11.9148 125.587 11.6477C126.343 11.375 127.178 11.2386 128.093 11.2386C128.723 11.2386 129.351 11.3125 129.976 11.4602C130.601 11.608 131.172 11.8523 131.689 12.1932C132.206 12.5284 132.621 12.9858 132.933 13.5653C133.252 14.1449 133.411 14.8693 133.411 15.7386V24.5H130.445V22.7017H130.343C130.155 23.0653 129.891 23.4062 129.55 23.7244C129.215 24.0369 128.791 24.2898 128.28 24.483C127.774 24.6705 127.181 24.7642 126.499 24.7642ZM127.3 22.4972C127.919 22.4972 128.456 22.375 128.911 22.1307C129.365 21.8807 129.715 21.5511 129.959 21.142C130.209 20.733 130.334 20.2869 130.334 19.804V18.2614C130.237 18.3409 130.073 18.4148 129.84 18.483C129.612 18.5511 129.357 18.6108 129.073 18.6619C128.789 18.7131 128.507 18.7585 128.229 18.7983C127.951 18.8381 127.709 18.8722 127.505 18.9006C127.044 18.9631 126.632 19.0653 126.269 19.2074C125.905 19.3494 125.618 19.5483 125.408 19.804C125.198 20.054 125.093 20.3778 125.093 20.7756C125.093 21.3438 125.3 21.7727 125.715 22.0625C126.13 22.3523 126.658 22.4972 127.3 22.4972Z" fill="#111111"/>
</svg>
