<svg width="243" height="199" viewBox="0 0 243 199" fill="none" xmlns="http://www.w3.org/2000/svg">
<path d="M221 99.5C221 154.452 176.452 199 121.5 199C66.5477 199 22 154.452 22 99.5C22 44.5477 66.5477 0 121.5 0C176.452 0 221 44.5477 221 99.5ZM27.1799 99.5C27.1799 151.592 69.4084 193.82 121.5 193.82C173.592 193.82 215.82 151.592 215.82 99.5C215.82 47.4084 173.592 5.17989 121.5 5.17989C69.4084 5.17989 27.1799 47.4084 27.1799 99.5Z" fill="#764DCB"/>
<path d="M204.252 128C192.43 162.332 159.847 187 121.5 187C83.1535 187 50.5698 162.332 38.748 128H92.3203C99.7272 135.582 110.063 140.292 121.5 140.292C132.937 140.292 143.273 135.582 150.68 128H204.252ZM121.5 12C160.955 12 194.309 38.1138 205.225 74H153.337C145.861 64.6785 134.379 58.708 121.5 58.708C108.621 58.708 97.1389 64.6785 89.6631 74H37.7754C48.6912 38.1138 82.0454 12 121.5 12Z" fill="#102D71"/>
<path d="M217 126H26V76H99V82.8623H143V76H217V126Z" fill="#613AB1"/>
<path d="M121.5 16L126.103 30.1652H140.997L128.947 38.9197L133.55 53.0848L121.5 44.3303L109.45 53.0848L114.053 38.9197L102.003 30.1652H116.897L121.5 16Z" fill="#E6DAFF"/>
<path d="M121.5 145L126.103 159.165H140.997L128.947 167.92L133.55 182.085L121.5 173.33L109.45 182.085L114.053 167.92L102.003 159.165H116.897L121.5 145Z" fill="#E6DAFF"/>
<path d="M89.5 33L92.0819 40.9463H100.437L93.6776 45.8574L96.2595 53.8037L89.5 48.8926L82.7405 53.8037L85.3224 45.8574L78.5628 40.9463H86.9181L89.5 33Z" fill="#E6DAFF"/>
<path d="M89.5 146L92.0819 153.946H100.437L93.6776 158.857L96.2595 166.804L89.5 161.893L82.7405 166.804L85.3224 158.857L78.5628 153.946H86.9181L89.5 146Z" fill="#E6DAFF"/>
<path d="M153.5 33L156.082 40.9463H164.437L157.678 45.8574L160.26 53.8037L153.5 48.8926L146.74 53.8037L149.322 45.8574L142.563 40.9463H150.918L153.5 33Z" fill="#E6DAFF"/>
<path d="M153.5 146L156.082 153.946H164.437L157.678 158.857L160.26 166.804L153.5 161.893L146.74 166.804L149.322 158.857L142.563 153.946H150.918L153.5 146Z" fill="#E6DAFF"/>
<path d="M39.9375 102V87.4545H43.8864V98.8182H49.767V102H39.9375ZM51.3633 102V87.4545H61.8462V90.6364H55.3121V93.1364H61.3065V96.3182H55.3121V98.8182H61.8178V102H51.3633ZM69.4013 102H63.8047V87.4545H69.3445C70.8407 87.4545 72.1333 87.7457 73.2223 88.3281C74.3161 88.9058 75.1589 89.7391 75.7507 90.8281C76.3473 91.9124 76.6456 93.2121 76.6456 94.7273C76.6456 96.2424 76.3497 97.5445 75.7578 98.6335C75.166 99.7178 74.3279 100.551 73.2436 101.134C72.1593 101.711 70.8786 102 69.4013 102ZM67.7536 98.6477H69.2592C69.9789 98.6477 70.5921 98.5317 71.0987 98.2997C71.6101 98.0677 71.9983 97.6676 72.2635 97.0994C72.5334 96.5312 72.6683 95.7405 72.6683 94.7273C72.6683 93.714 72.531 92.9233 72.2564 92.3551C71.9865 91.7869 71.5888 91.3868 71.0632 91.1548C70.5424 90.9228 69.9032 90.8068 69.1456 90.8068H67.7536V98.6477ZM86.1502 102L81.8604 87.4545H86.2638L88.2525 96.4034H88.3661L90.7241 87.4545H94.19L96.5479 96.4318H96.6616L98.6502 87.4545H103.054L98.7638 102H94.9854L92.5138 93.875H92.4002L89.9286 102H86.1502ZM106.411 102H102.15L106.951 87.4545H112.349L117.15 102H112.888L109.707 91.4602H109.593L106.411 102ZM105.616 96.2614H113.627V99.2159H105.616V96.2614ZM118.551 102V87.4545H124.829C125.909 87.4545 126.853 87.651 127.663 88.044C128.473 88.437 129.102 89.0028 129.552 89.7415C130.002 90.4801 130.227 91.3655 130.227 92.3977C130.227 93.4394 129.995 94.3177 129.531 95.0327C129.072 95.7476 128.425 96.2874 127.592 96.652C126.763 97.0166 125.795 97.1989 124.687 97.1989H120.937V94.1307H123.892C124.356 94.1307 124.751 94.0739 125.078 93.9602C125.409 93.8419 125.663 93.6548 125.838 93.3991C126.018 93.1435 126.108 92.8097 126.108 92.3977C126.108 91.9811 126.018 91.6425 125.838 91.3821C125.663 91.117 125.409 90.9228 125.078 90.7997C124.751 90.6719 124.356 90.608 123.892 90.608H122.5V102H118.551ZM127.074 95.3239L130.71 102H126.42L122.869 95.3239H127.074ZM131.91 102V87.4545H138.189C139.268 87.4545 140.213 87.651 141.022 88.044C141.832 88.437 142.462 89.0028 142.912 89.7415C143.361 90.4801 143.586 91.3655 143.586 92.3977C143.586 93.4394 143.354 94.3177 142.89 95.0327C142.431 95.7476 141.785 96.2874 140.951 96.652C140.123 97.0166 139.154 97.1989 138.047 97.1989H134.297V94.1307H137.251C137.715 94.1307 138.11 94.0739 138.437 93.9602C138.769 93.8419 139.022 93.6548 139.197 93.3991C139.377 93.1435 139.467 92.8097 139.467 92.3977C139.467 91.9811 139.377 91.6425 139.197 91.3821C139.022 91.117 138.769 90.9228 138.437 90.7997C138.11 90.6719 137.715 90.608 137.251 90.608H135.859V102H131.91ZM140.433 95.3239L144.069 102H139.779L136.228 95.3239H140.433ZM149.048 102H144.787L149.588 87.4545H154.985L159.787 102H155.525L152.343 91.4602H152.23L149.048 102ZM148.252 96.2614H156.264V99.2159H148.252V96.2614ZM173.773 87.4545V102H170.477L165.222 94.358H165.136V102H161.188V87.4545H164.54L169.71 95.0682H169.824V87.4545H173.773ZM175.243 90.6364V87.4545H187.885V90.6364H183.51V102H179.618V90.6364H175.243ZM188.775 87.4545H193.178L196.019 93.3636H196.132L198.973 87.4545H203.377L198.036 97.4261V102H194.115V97.4261L188.775 87.4545Z" fill="white"/>
<path d="M45.9375 106.455H50.8523L54.233 114.693H54.4034L57.7841 106.455H62.6989V121H58.8352V112.591H58.7216L55.483 120.886H53.1534L49.9148 112.534H49.8011V121H45.9375V106.455ZM68.3487 121H64.0874L68.8885 106.455H74.2862L79.0874 121H74.826L71.6442 110.46H71.5305L68.3487 121ZM67.5533 115.261H75.5646V118.216H67.5533V115.261ZM93.0735 106.455V121H89.7781L84.5224 113.358H84.4371V121H80.4883V106.455H83.8406L89.011 114.068H89.1246V106.455H93.0735ZM98.7198 121H94.4585L99.2596 106.455H104.657L109.458 121H105.197L102.015 110.46H101.902L98.7198 121ZM97.9244 115.261H105.936V118.216H97.9244V115.261ZM119.622 111.256C119.56 111.005 119.463 110.785 119.331 110.595C119.198 110.401 119.032 110.238 118.833 110.105C118.639 109.968 118.412 109.866 118.152 109.8C117.896 109.729 117.614 109.693 117.306 109.693C116.644 109.693 116.078 109.852 115.609 110.169C115.145 110.486 114.79 110.943 114.544 111.54C114.302 112.136 114.181 112.856 114.181 113.699C114.181 114.551 114.297 115.28 114.529 115.886C114.761 116.492 115.107 116.956 115.566 117.278C116.026 117.6 116.596 117.761 117.278 117.761C117.879 117.761 118.379 117.674 118.777 117.499C119.179 117.323 119.48 117.075 119.679 116.753C119.877 116.431 119.977 116.052 119.977 115.616L120.659 115.688H117.335V112.875H123.784V114.892C123.784 116.218 123.502 117.352 122.939 118.294C122.38 119.232 121.608 119.951 120.623 120.453C119.643 120.95 118.519 121.199 117.25 121.199C115.834 121.199 114.591 120.898 113.521 120.297C112.451 119.696 111.615 118.839 111.014 117.726C110.417 116.613 110.119 115.29 110.119 113.756C110.119 112.553 110.301 111.488 110.666 110.56C111.035 109.632 111.547 108.848 112.2 108.209C112.853 107.565 113.609 107.08 114.466 106.753C115.323 106.421 116.241 106.256 117.221 106.256C118.083 106.256 118.883 106.379 119.622 106.625C120.365 106.866 121.021 107.212 121.589 107.662C122.162 108.107 122.624 108.635 122.974 109.246C123.324 109.857 123.538 110.527 123.613 111.256H119.622ZM125.625 121V106.455H136.108V109.636H129.574V112.136H135.568V115.318H129.574V117.818H136.08V121H125.625ZM138.066 106.455H142.981L146.362 114.693H146.532L149.913 106.455H154.828V121H150.964V112.591H150.85L147.612 120.886H145.282L142.044 112.534H141.93V121H138.066V106.455ZM156.699 121V106.455H167.182V109.636H160.648V112.136H166.642V115.318H160.648V117.818H167.154V121H156.699ZM181.726 106.455V121H178.43L173.175 113.358H173.089V121H169.141V106.455H172.493L177.663 114.068H177.777V106.455H181.726ZM183.196 109.636V106.455H195.838V109.636H191.463V121H187.571V109.636H183.196Z" fill="white"/>
<path d="M243 82H220H217V133.5H243L232.5 107.5L243 82Z" fill="#613AB1"/>
<path d="M0 133.5L23 133.5L26 133.5L26 82L4.50227e-06 82L10.5 108L0 133.5Z" fill="#613AB1"/>
<path d="M212 126L217 133.5V126H212Z" fill="#3A1685"/>
<path d="M31 126L26 133.5L26 126L31 126Z" fill="#3A1685"/>
<path d="M126.666 64.9375L119.334 74.6031L115 70.2719L113 72.2719L119.666 78.9375L129 66.9375L126.666 64.9375Z" fill="#613AB1"/>
</svg>
