<svg width="119" height="50" viewBox="0 0 119 50" fill="none" xmlns="http://www.w3.org/2000/svg">
<path d="M1.68866 43.7792V26.0843H6.54842V39.5426H14.5736V43.7792H1.68866Z" fill="#213F71"/>
<path d="M59.5576 34.1095H62.1245C62.4241 34.1095 62.7017 33.9724 62.9598 33.6984C63.2163 33.4239 63.3459 32.93 63.3459 32.2152C63.3459 31.4842 63.1963 30.9859 62.8972 30.7201C62.5976 30.4546 62.2995 30.3213 61.9999 30.3213H59.5576V34.1095ZM54.698 43.7792V26.0843H62.3239C63.1875 26.0843 63.9851 26.2632 64.7168 26.6202C65.447 26.978 66.0745 27.4427 66.5985 28.016C67.1209 28.5891 67.5329 29.2457 67.8316 29.9849C68.1307 30.7241 68.2802 31.4677 68.2802 32.2152C68.2802 32.9966 68.1385 33.7564 67.857 34.4957C67.574 35.2353 67.1796 35.8915 66.6723 36.4644C66.1664 37.0377 65.5511 37.4952 64.8282 37.835C64.1059 38.1758 63.3126 38.3461 62.4485 38.3461H59.5576V43.7792H54.698Z" fill="#213F71"/>
<path d="M75.0098 34.1095H78.0747C78.3738 34.1095 78.6514 33.9436 78.91 33.6112C79.167 33.279 79.2956 32.8135 79.2956 32.2152C79.2956 31.6008 79.1465 31.1312 78.8469 30.807C78.5483 30.4832 78.2492 30.3213 77.9496 30.3213H75.0098V34.1095ZM70.1492 43.7792V26.0843H78.2736C79.1377 26.0843 79.9354 26.2632 80.6665 26.6202C81.3972 26.978 82.0247 27.4427 82.5482 28.016C83.0716 28.5891 83.4827 29.2457 83.7813 29.9849C84.0809 30.7241 84.23 31.4677 84.23 32.2152C84.23 33.2458 84.0056 34.2053 83.557 35.0939C83.1083 35.9827 82.4861 36.7097 81.6885 37.2743L85.6762 43.7792H80.1924L76.8284 38.3461H75.0098V43.7792H70.1492Z" fill="#213F71"/>
<path d="M90.9341 34.9568C90.9341 35.5551 91.005 36.1324 91.1462 36.6888C91.287 37.2455 91.5074 37.7399 91.807 38.1716C92.1051 38.6038 92.4795 38.953 92.9282 39.2184C93.3768 39.4846 93.8998 39.6172 94.4985 39.6172C95.1129 39.6172 95.6441 39.4802 96.0928 39.2062C96.5415 38.9316 96.9071 38.5746 97.19 38.1344C97.4716 37.6941 97.6837 37.1915 97.8249 36.6263C97.9657 36.0618 98.037 35.4889 98.037 34.9071C98.037 34.3088 97.9623 33.7315 97.8127 33.1747C97.6627 32.6184 97.4427 32.128 97.1524 31.7047C96.8616 31.2809 96.4916 30.9406 96.0429 30.6827C95.5943 30.4252 95.0708 30.2965 94.4731 30.2965C93.8587 30.2965 93.3304 30.4296 92.891 30.6949C92.4502 30.9611 92.0846 31.3141 91.7938 31.7544C91.503 32.1946 91.287 32.6931 91.1462 33.2498C91.005 33.8067 90.9341 34.3756 90.9341 34.9568ZM94.4487 43.9289C93.1857 43.9289 92.0347 43.6713 90.9962 43.1561C89.9576 42.6412 89.069 41.9644 88.3301 41.1249C87.5906 40.2862 87.0173 39.3266 86.6097 38.2467C86.203 37.1666 85.9997 36.0534 85.9997 34.9071C85.9997 33.7442 86.2118 32.6228 86.6351 31.5424C87.0583 30.4628 87.6527 29.5114 88.4171 28.689C89.181 27.8665 90.0822 27.2101 91.1208 26.7201C92.1594 26.23 93.3021 25.9849 94.5479 25.9849C95.8098 25.9849 96.9613 26.2428 97.9999 26.7577C99.0375 27.2726 99.9265 27.9538 100.666 28.8011C101.405 29.6485 101.975 30.6121 102.374 31.6919C102.772 32.7725 102.971 33.8769 102.971 35.0066C102.971 36.1698 102.759 37.2871 102.336 38.3587C101.912 39.4303 101.326 40.3772 100.579 41.1999C99.8317 42.0224 98.9344 42.6826 97.887 43.1809C96.8406 43.6798 95.694 43.9289 94.4487 43.9289Z" fill="#213F71"/>
<path d="M115.632 31.8666C115.134 31.5672 114.619 31.3019 114.087 31.0689C113.639 30.8694 113.136 30.6827 112.579 30.5082C112.022 30.3335 111.479 30.2463 110.947 30.2463C110.515 30.2463 110.171 30.3131 109.913 30.4458C109.655 30.5793 109.526 30.8035 109.526 31.1186C109.526 31.3517 109.602 31.5424 109.751 31.6919C109.9 31.8416 110.116 31.9786 110.398 32.1029C110.681 32.2278 111.026 32.3487 111.434 32.4647C111.84 32.5808 112.301 32.7223 112.816 32.888C113.63 33.1377 114.365 33.4117 115.022 33.7107C115.678 34.01 116.239 34.363 116.704 34.7701C117.169 35.1773 117.527 35.6712 117.776 36.2529C118.025 36.8344 118.15 37.5406 118.15 38.3709C118.15 39.4347 117.954 40.3276 117.563 41.0502C117.173 41.7729 116.658 42.3506 116.019 42.782C115.379 43.2145 114.656 43.526 113.851 43.7167C113.044 43.9075 112.235 44.0035 111.42 44.0035C110.773 44.0035 110.108 43.9537 109.427 43.8538C108.745 43.7544 108.068 43.6133 107.396 43.43C106.723 43.2477 106.075 43.0318 105.452 42.782C104.829 42.5329 104.251 42.2505 103.72 41.9351L105.813 37.6731C106.395 38.0389 107.001 38.3631 107.633 38.6455C108.164 38.8946 108.766 39.1189 109.439 39.3182C110.112 39.5177 110.797 39.6172 111.496 39.6172C112.027 39.6172 112.396 39.547 112.605 39.4055C112.812 39.2646 112.916 39.0775 112.916 38.8448C112.916 38.5952 112.812 38.3835 112.605 38.209C112.396 38.0345 112.11 37.8814 111.744 37.7481C111.379 37.6151 110.959 37.4826 110.486 37.3493C110.013 37.2162 109.51 37.0588 108.979 36.8761C108.198 36.6103 107.525 36.3235 106.96 36.016C106.395 35.7088 105.929 35.3596 105.564 34.9692C105.198 34.579 104.928 34.1343 104.754 33.636C104.579 33.1377 104.492 32.5644 104.492 31.9162C104.492 30.9362 104.671 30.0722 105.028 29.3244C105.385 28.5769 105.871 27.9538 106.486 27.4553C107.1 26.9566 107.803 26.5792 108.592 26.3213C109.381 26.0639 110.216 25.935 111.097 25.935C111.744 25.935 112.376 25.9975 112.99 26.1219C113.605 26.2466 114.199 26.4047 114.773 26.5954C115.346 26.7865 115.882 26.994 116.38 27.2183C116.878 27.4427 117.327 27.6548 117.726 27.8543L115.632 31.8666Z" fill="#213F71"/>
<path d="M21.2028 39.5426V36.7512H24.3474L24.6425 36.0534L26.0127 32.8134H21.2028V30.3213H27.0668L28.8589 26.0843H16.343V43.7792H27.0103L28.1993 39.5426H21.2028Z" fill="#213F71"/>
<path d="M46.9368 31.4804C46.5546 30.4085 45.99 29.474 45.242 28.6762C44.4946 27.8791 43.5639 27.2476 42.4507 26.7825C41.3374 26.3172 40.0498 26.0843 38.588 26.0843H37.5225L37.2419 26.7689L35.7854 30.3213H38.588C39.2024 30.3213 39.7591 30.4336 40.2576 30.6577C40.7563 30.882 41.1757 31.1936 41.5165 31.5924C41.8567 31.9909 42.1183 32.4731 42.3015 33.0376C42.4839 33.6028 42.5755 34.2259 42.5755 34.9071C42.5755 35.5717 42.4882 36.1864 42.3136 36.7512C42.1394 37.3163 41.8817 37.8064 41.5413 38.2216C41.2005 38.6371 40.7811 38.9609 40.2828 39.1934C39.7841 39.4265 39.219 39.5426 38.588 39.5426H34.6013L32.3876 43.7792H38.588C39.9338 43.7792 41.1551 43.5675 42.2517 43.1438C43.3483 42.7202 44.2865 42.1219 45.0675 41.349C45.8486 40.5767 46.4507 39.6464 46.8743 38.5582C47.2982 37.4698 47.5097 36.2529 47.5097 34.9071C47.5097 33.6944 47.3186 32.5516 46.9368 31.4804Z" fill="#213F71"/>
<path d="M27.0759 50L36.0553 32.8147H32.787L35.5435 26.091H30.752L26.2439 36.7497H26.2886H30.7948H30.795L27.0759 50Z" fill="url(#paint0_linear_64_175)"/>
<path d="M16.5368 11.9116H12.8879C12.8212 11.4395 12.6852 11.0202 12.4797 10.6536C12.2742 10.2815 12.0104 9.96493 11.6882 9.70389C11.3661 9.44286 10.994 9.24292 10.5719 9.10407C10.1554 8.96522 9.70271 8.8958 9.21397 8.8958C8.33089 8.8958 7.56167 9.11518 6.90631 9.55394C6.25095 9.98714 5.74276 10.6203 5.38176 11.4534C5.02075 12.2809 4.84025 13.2862 4.84025 14.4692C4.84025 15.6855 5.02075 16.7074 5.38176 17.5349C5.74832 18.3625 6.25928 18.9873 6.91464 19.4094C7.57001 19.8315 8.32812 20.0425 9.18898 20.0425C9.67217 20.0425 10.1193 19.9787 10.5303 19.8509C10.9468 19.7232 11.3161 19.5371 11.6383 19.2928C11.9604 19.0428 12.227 18.7401 12.438 18.3847C12.6546 18.0292 12.8046 17.6238 12.8879 17.1684L16.5368 17.185C16.4424 17.9681 16.2064 18.7235 15.8287 19.451C15.4566 20.173 14.954 20.8201 14.3208 21.3921C13.6932 21.9586 12.9434 22.4085 12.0715 22.7417C11.2051 23.0694 10.2248 23.2333 9.13066 23.2333C7.60888 23.2333 6.24817 22.8889 5.04852 22.2002C3.85443 21.5115 2.91026 20.5146 2.21602 19.2094C1.52733 17.9043 1.18299 16.3242 1.18299 14.4692C1.18299 12.6086 1.53288 11.0257 2.23268 9.72056C2.93247 8.41538 3.8822 7.42123 5.08185 6.7381C6.28149 6.04941 7.6311 5.70506 9.13066 5.70506C10.1193 5.70506 11.0357 5.84391 11.8799 6.12161C12.7296 6.39931 13.4822 6.80474 14.1375 7.33792C14.7929 7.86554 15.3261 8.51257 15.7371 9.27902C16.1536 10.0455 16.4202 10.923 16.5368 11.9116ZM21.0398 23H17.1743L23.0642 5.93833H27.7129L33.5945 23H29.729L25.4552 9.83719H25.3219L21.0398 23ZM20.7982 16.2936H29.9289V19.1095H20.7982V16.2936ZM34.9443 23V5.93833H41.6756C42.9641 5.93833 44.0638 6.16882 44.9747 6.62979C45.8911 7.08522 46.5881 7.73225 47.0657 8.57089C47.5489 9.40398 47.7905 10.3842 47.7905 11.5117C47.7905 12.6447 47.5461 13.6194 47.0574 14.4358C46.5686 15.2467 45.8605 15.8688 44.933 16.302C44.0111 16.7352 42.8947 16.9518 41.584 16.9518H37.077V14.0526H41.0008C41.6895 14.0526 42.2616 13.9582 42.717 13.7694C43.1724 13.5805 43.5112 13.2973 43.7334 12.9196C43.9611 12.542 44.0749 12.0726 44.0749 11.5117C44.0749 10.9452 43.9611 10.4676 43.7334 10.0788C43.5112 9.69001 43.1696 9.39565 42.7087 9.19571C42.2532 8.99021 41.6784 8.88747 40.9842 8.88747H38.5515V23H34.9443ZM44.1582 15.2356L48.3987 23H44.4165L40.2677 15.2356H44.1582ZM65.3147 14.4692C65.3147 16.3297 64.962 17.9126 64.2567 19.2178C63.5569 20.5229 62.6016 21.5199 61.3909 22.2086C60.1857 22.8917 58.8305 23.2333 57.3254 23.2333C55.8092 23.2333 54.4484 22.8889 53.2432 22.2002C52.038 21.5115 51.0855 20.5146 50.3857 19.2094C49.686 17.9043 49.3361 16.3242 49.3361 14.4692C49.3361 12.6086 49.686 11.0257 50.3857 9.72056C51.0855 8.41538 52.038 7.42123 53.2432 6.7381C54.4484 6.04941 55.8092 5.70506 57.3254 5.70506C58.8305 5.70506 60.1857 6.04941 61.3909 6.7381C62.6016 7.42123 63.5569 8.41538 64.2567 9.72056C64.962 11.0257 65.3147 12.6086 65.3147 14.4692ZM61.6574 14.4692C61.6574 13.264 61.4769 12.2476 61.1159 11.4201C60.7605 10.5925 60.2579 9.96493 59.608 9.53728C58.9582 9.10962 58.1973 8.8958 57.3254 8.8958C56.4534 8.8958 55.6925 9.10962 55.0427 9.53728C54.3929 9.96493 53.8875 10.5925 53.5265 11.4201C53.171 12.2476 52.9933 13.264 52.9933 14.4692C52.9933 15.6744 53.171 16.6907 53.5265 17.5183C53.8875 18.3458 54.3929 18.9734 55.0427 19.4011C55.6925 19.8287 56.4534 20.0425 57.3254 20.0425C58.1973 20.0425 58.9582 19.8287 59.608 19.4011C60.2579 18.9734 60.7605 18.3458 61.1159 17.5183C61.4769 16.6907 61.6574 15.6744 61.6574 14.4692ZM67.283 23V5.93833H70.8903V20.0259H78.2048V23H67.283ZM83.4972 5.93833V23H79.8899V5.93833H83.4972ZM100.032 5.93833V23H96.9164L89.4935 12.2615H89.3686V23H85.7613V5.93833H88.927L96.2916 16.6685H96.4415V5.93833H100.032ZM105.25 23H101.384L107.274 5.93833H111.923L117.804 23H113.939L109.665 9.83719H109.532L105.25 23ZM105.008 16.2936H114.139V19.1095H105.008V16.2936Z" fill="#1775BC"/>
<defs>
<linearGradient id="paint0_linear_64_175" x1="34.6728" y1="50.3633" x2="25.6827" y2="30.9583" gradientUnits="userSpaceOnUse">
<stop offset="0.06" stop-color="#FBCA2A"/>
<stop offset="0.25" stop-color="#A9852E"/>
<stop offset="0.29" stop-color="#B6943F"/>
<stop offset="0.38" stop-color="#D8BC6B"/>
<stop offset="0.43" stop-color="#EED688"/>
<stop offset="0.6" stop-color="#C2922E"/>
<stop offset="0.77" stop-color="#DDC55E"/>
<stop offset="1" stop-color="#AF8C28"/>
</linearGradient>
</defs>
</svg>
