<svg width="18" height="18" viewBox="0 0 18 18" fill="none" xmlns="http://www.w3.org/2000/svg">
<path d="M6.86894 4.28417L6.56694 3.60469C6.36948 3.16041 6.27075 2.93826 6.1231 2.76826C5.93805 2.55521 5.69684 2.39846 5.427 2.31589C5.21168 2.25 4.96859 2.25 4.4824 2.25C3.77117 2.25 3.41556 2.25 3.11704 2.38672C2.76539 2.54777 2.44782 2.89746 2.32129 3.26295C2.21387 3.57322 2.24465 3.89207 2.30618 4.52978C2.96117 11.3176 6.68261 15.0391 13.4704 15.694C14.1082 15.7556 14.4271 15.7864 14.7373 15.679C15.1028 15.5525 15.4525 15.2348 15.6136 14.8832C15.7502 14.5846 15.7502 14.2291 15.7502 13.5178C15.7502 13.0316 15.7502 12.7885 15.6844 12.5732C15.6018 12.3034 15.445 12.0622 15.232 11.8771C15.062 11.7295 14.8399 11.6308 14.3956 11.4333L13.7161 11.1313C13.2349 10.9174 12.9943 10.8106 12.7499 10.7873C12.5159 10.765 12.28 10.7979 12.061 10.8832C11.8322 10.9723 11.63 11.1408 11.2255 11.4778C10.8229 11.8134 10.6216 11.9812 10.3756 12.071C10.1575 12.1507 9.86916 12.1802 9.63951 12.1463C9.38039 12.1082 9.18201 12.0022 8.78519 11.7901C7.55069 11.1304 6.86989 10.4496 6.21014 9.21502C5.9981 8.81827 5.89208 8.61983 5.85389 8.36077C5.82005 8.13105 5.84955 7.84275 5.92922 7.62472C6.01908 7.37871 6.18685 7.17739 6.52238 6.77475C6.85946 6.37026 7.028 6.16802 7.11711 5.93918C7.20238 5.72021 7.23521 5.4843 7.21295 5.25036C7.1897 5.00589 7.08278 4.76532 6.86894 4.28417Z" fill="#fff"/>
</svg>
