<svg width="18" height="19" viewBox="0 0 18 19" fill="none" xmlns="http://www.w3.org/2000/svg">
<path d="M6.86869 4.78417L6.5667 4.10469C6.36924 3.66041 6.27051 3.43826 6.12286 3.26826C5.93781 3.05521 5.6966 2.89846 5.42676 2.81589C5.21144 2.75 4.96834 2.75 4.48216 2.75C3.77093 2.75 3.41532 2.75 3.1168 2.88672C2.76515 3.04777 2.44758 3.39746 2.32105 3.76295C2.21363 4.07322 2.2444 4.39207 2.30593 5.02978C2.96093 11.8176 6.68236 15.5391 13.4702 16.194C14.1079 16.2556 14.4268 16.2864 14.737 16.179C15.1026 16.0525 15.4522 15.7348 15.6133 15.3832C15.75 15.0846 15.75 14.7291 15.75 14.0178C15.75 13.5316 15.75 13.2885 15.6841 13.0732C15.6015 12.8034 15.4448 12.5622 15.2317 12.3771C15.0618 12.2295 14.8396 12.1308 14.3953 11.9333L13.7158 11.6313C13.2347 11.4174 12.9941 11.3106 12.7497 11.2873C12.5157 11.265 12.2798 11.2979 12.0608 11.3832C11.832 11.4723 11.6298 11.6408 11.2252 11.9778C10.8226 12.3134 10.6213 12.4812 10.3753 12.571C10.1572 12.6507 9.86892 12.6802 9.63927 12.6463C9.38014 12.6082 9.18177 12.5022 8.78494 12.2901C7.55044 11.6304 6.86965 10.9496 6.2099 9.71502C5.99785 9.31827 5.89183 9.11983 5.85365 8.86077C5.8198 8.63105 5.84931 8.34275 5.92897 8.12472C6.01884 7.87871 6.18661 7.67739 6.52214 7.27475C6.85921 6.87026 7.02775 6.66802 7.11686 6.43918C7.20214 6.22021 7.23496 5.9843 7.21271 5.75036C7.18945 5.50589 7.08253 5.26532 6.86869 4.78417Z" fill="#764DCB"/>
</svg>
